/* XPM */
static char * img_xpm[] = {
"64 64 10 1",
" 	c #CEA56B",
".	c #C5A56B",
"+	c #C59C63",
"@	c #CEAD73",
"#	c #CEAD6B",
"$	c #D6AD73",
"%	c #C59C6B",
"&	c #D6B57B",
"*	c #C5A563",
"=	c #BD9C63",
"  ...................++...  ..  @                               ",
"     .....................     #@#      ........                ",
"      ..... ....      .. .    #@@##     ........       ##       ",
"           ......            #@@$@@@###                         ",
".                   #  ## #@@@$$$$$@@@@#                       .",
"                ###@@@@@@@@@$$$$$$$@@@##@##                     ",
"                 ##       #@@@$$$$$$@@# #              #####    ",
"$           ##@@@@#        #@@@$$$$@@@#             #####$$$$$$$",
"$# ##      @@@@$@@@         ###@@                     ###$$$$$$$",
"#######      ##@@@#             .....                        ###",
"  ###              ......         ........                      ",
"..  .  . . ..     .........    .........................+.......",
"++.........       .......        .....................++++++++++",
"+.......                 #@@@@@@@ ...............  .  ...+++++++",
"..                  #   ###@@@@@# .. .                  ........",
".                    #          ....              ###    .......",
"                     ....    .....     #      ########          ",
"###                               @       @@#    #####       ###",
"#@@@@@@@@##                      #@  .....   ..  #@ #         ##",
"#@@@@@@@@@@@@@##                   ...+%.......  #@##          #",
"$$$$$$$$$$$$$$@@@@@@@@###           ........    #@@@@@@@@##@@@$$",
"$$$$$$$$$$$$$$@@$$$$@$@@##########@@      @@@@@@@#@@@@@@@@@@$$$$",
"&$$$$$$$$$$$$$@@$$$$$$@@#@@@@@@@@@$$@@@@@@$$$$$@@@@@@@@@@@$$$$$$",
"$$$$$$$$$$$$$$$$$$$$$$$$@@@@@@@@@@@@@@@@@@@@@$$$$$$@@@@@@@@@$$$$",
"$$$$$$$$$$$$$$$$@@@@@@@@$@@@@@@@@@@@@@@@@@@@@@@@$$$$@@@@@@@@$$$$",
"@@@@@@@@@@@@@@@########$@@@@@@@@@@@@@@@@@#@@@@@@@@@$$$@@@@@@@@@@",
"##@@@@@#@@@@@@@@@@@@@@@@@@@@@@@@@@$$$$$$$@@@@@@@@@@@@####@@@@@##",
"  #               #####@#                          #   #@@@@@@@#",
"     ... ........+++**....+======+++...........    ....         ",
"#   ...%++++++++==========+======+++..................++%%...   ",
"$  ....%+++++++++++++++++...............  ...        ....*%...  ",
"$    ...............              ....... .........  .....     #",
"                                  ...................++...  ..  ",
"@#      ........                     .....................     #",
"@##     ........       ##             ..... ....      .. .    #@",
"$@@@###                                    ......            #@@",
"$$$@@@@#                       ..                   #  ## #@@@$$",
"$$$@@@##@##                                     ###@@@@@@@@@$$$$",
"$$$$@@# #              #####                     ##       #@@@$$",
"$$$@@@#             #####$$$$$$$$           ##@@@@#        #@@@$",
"@                     ###$$$$$$$$# ##      @@@@$@@@         ###@",
".....                        ##########      ##@@@#             ",
"  ........                        ###              ......       ",
"........................+.........  .  . . ..     .........    .",
" .....................++++++++++++.........       .......       ",
"@ ...............  .  ...++++++++.......                 #@@@@@@",
"# .. .                  ..........                  #   ###@@@@@",
"....              ###    ........                    #          ",
"..     #      ########                               ....    ...",
"  @       @@#    #####       ######                             ",
" #@  .....   ..  #@ #         ###@@@@@@@@##                     ",
"   ...+%.......  #@##          ##@@@@@@@@@@@@@##                ",
"    ........    #@@@@@@@@##@@@$$$$$$$$$$$$$$$$@@@@@@@@###       ",
"##@@      @@@@@@@#@@@@@@@@@@$$$$$$$$$$$$$$$$$$@@$$$$@$@@########",
"@@$$@@@@@@$$$$$@@@@@@@@@@@$$$$$$&$$$$$$$$$$$$$@@$$$$$$@@#@@@@@@@",
"@@@@@@@@@@@@@$$$$$$@@@@@@@@@$$$$$$$$$$$$$$$$$$$$$$$$$$$$@@@@@@@@",
"@@@@@@@@@@@@@@@@$$$$@@@@@@@@$$$$$$$$$$$$$$$$$$$$@@@@@@@@$@@@@@@@",
"@@@@@@@@@#@@@@@@@@@$$$@@@@@@@@@@@@@@@@@@@@@@@@@########$@@@@@@@@",
"@@$$$$$$$@@@@@@@@@@@@####@@@@@####@@@@@#@@@@@@@@@@@@@@@@@@@@@@@@",
"                   #   #@@@@@@@#  #               #####@#       ",
"=+++...........    ....              ... ........+++**....+=====",
"=+++..................++%%...   #   ...%++++++++==========+=====",
"........  ...        ....*%...  $  ....%+++++++++++++++++.......",
"  ....... .........  .....     #$    ...............            "};
