/* XPM */
static char *_1fa5cb87065411cb8930d398c90e006y5iJskmBk9DLNNdV[] = {
/* columns rows colors chars-per-pixel */
"64 64 2 1 ",
"  c white",
". c black",
/* pixels */
"                                                                ",
"                                                                ",
"                                                                ",
"                                                                ",
"                                                                ",
"                   ......   ......   ......                     ",
"                   .    .   .    .   .    .                     ",
"                   .    .   .    .   .    .                     ",
"                   .    .....    .....    .                     ",
"                   .                      .                     ",
"                   .                      .                     ",
"                   .                      .                     ",
"                   .                      .                     ",
"                   ........................                     ",
"                                                                ",
"                   ........................                     ",
"                   ...                  ...                     ",
"                     ...              ...                       ",
"                       ................                         ",
"                       .             .                          ",
"                       ...............                          ",
"                                                                ",
"                       ................                         ",
"                      .                .                        ",
"                      .                .                        ",
"                       ..            ..                         ",
"                        .            .                          ",
"                        .            .                          ",
"                        .            .                          ",
"                        .  .      .  .                          ",
"                        .   .    .   .                          ",
"                        .    .  .    .                          ",
"                       .              .                         ",
"                       .   .      .   .                         ",
"                       .              .                         ",
"                       .              .                         ",
"                      .                .                        ",
"                      .                .                        ",
"                      .       ..       .                        ",
"                     .      ......      .                       ",
"                     .     ..    ..     .                       ",
"                     .     .      .     .                       ",
"                    .                    .                      ",
"                    .                    .                      ",
"                 ...                      ...                   ",
"                 .                          .                   ",
"                 .                          .                   ",
"                  ..........................                    ",
"                                                                ",
"                 ............................                   ",
"                .                            .                  ",
"                .                            .                  ",
"               .                              .                 ",
"               .                              .                 ",
"              .                                .                ",
"              .                                .                ",
"              .                                .                ",
"              .                                .                ",
"              ..................................                ",
"                                                                ",
"                                                                ",
"                                                                ",
"                                                                ",
"                                                                "
};
