/* XPM */
static char *a7bc5e622b5a44abdd15afbb994bbdbdAVjKSz3EPppgCJLH[] = {
/* columns rows colors chars-per-pixel */
"64 64 2 1 ",
"  c white",
". c black",
/* pixels */
"                                                                ",
"                                                                ",
"                             ......                             ",
"                             .    .                             ",
"                             .    .                             ",
"                             .    .                             ",
"                        ......    ......                        ",
"                        .              .                        ",
"                        .              .                        ",
"                        .              .                        ",
"                        ................                        ",
"                              .  .                              ",
"                            ...  ...                            ",
"                          ...      ...                          ",
"                         ..............                         ",
"                          .          .                          ",
"                          .          .                          ",
"                           .        .                           ",
"                           .        .                           ",
"                           .        .                           ",
"                            .      .                            ",
"                            ........                            ",
"                            .      .                            ",
"                           .        .                           ",
"                        ................                        ",
"                        .              .                        ",
"                        ..            ..                        ",
"                          ............                          ",
"                          .          .                          ",
"                           .        .                           ",
"                           .        .                           ",
"                           . ..  .. .                           ",
"                           . ..  .. .                           ",
"                           .        .                           ",
"                           .        .                           ",
"                           . .    . .                           ",
"                           . .    . .                           ",
"                           . ..  .. .                           ",
"                           .  ....  .                           ",
"                           .        .                           ",
"                           .        .                           ",
"                           .        .                           ",
"                           .        .                           ",
"                           .        .                           ",
"                          ..        ..                          ",
"                          .          .                          ",
"                         ..          ..                         ",
"                         .            .                         ",
"                        .              .                        ",
"                       ..................                       ",
"                       .                .                       ",
"                       ..................                       ",
"                     ..                  ..                     ",
"                    .                      .                    ",
"                   .                        .                   ",
"                   .                        .                   ",
"                    .                      .                    ",
"                     .                    .                     ",
"                    ........................                    ",
"                   .                        .                   ",
"                   .                        .                   ",
"                   .                        .                   ",
"                    ........................                    ",
"                                                                "
};
