/* XPM */
static char *_91b6e5aeb6645aba444263c26fe81b4bvjOAbxGaZlXPYXw[] = {
/* columns rows colors chars-per-pixel */
"64 64 2 1 ",
"  c white",
". c black",
/* pixels */
"                                                                ",
"                                                                ",
"                                                                ",
"                                                                ",
"                              ....                              ",
"                           ..........                           ",
"                          ...      ...                          ",
"                         ..          ..                         ",
"                        ..            ..                        ",
"                       ..              ..                       ",
"                       ..              ..                       ",
"                      ..                ..                      ",
"                      ..                ..                      ",
"                      ..                ..                      ",
"                      ..                ..                      ",
"                      ..                ..                      ",
"                      ..                ..                      ",
"                       ..              ..                       ",
"                       ..              ..                       ",
"                        ..            ..                        ",
"                       ..................                       ",
"                     ......................                     ",
"                    ...                  ...                    ",
"                    ..                    ..                    ",
"                    ..                    ..                    ",
"                    ...                  ...                    ",
"                     ......................                     ",
"                      ....................                      ",
"                          ..        ..                          ",
"                          ..        ..                          ",
"                          ..        ..                          ",
"                          ..        ..                          ",
"                          ..        ..                          ",
"                          ..        ..                          ",
"                          .          .                          ",
"                         ..          ..                         ",
"                        ..            ..                        ",
"                        ..            ..                        ",
"                       ..              ..                       ",
"                      ..                ..                      ",
"                     ..                  ..                     ",
"                    ..                    ..                    ",
"                  ...                      ...                  ",
"                  ..                        ..                  ",
"                  ..                        ..                  ",
"                  ..                        ..                  ",
"                 ..............................                 ",
"               ..................................               ",
"              ...                              ...              ",
"             ...                                ...             ",
"             ..                                  ..             ",
"            ...                                  ...            ",
"            ..                                    ..            ",
"            ..                                    ..            ",
"            ........................................            ",
"          ............................................          ",
"         ..                                          ..         ",
"        ..                                            ..        ",
"        ................................................        ",
"        ................................................        ",
"                                                                ",
"                                                                ",
"                                                                ",
"                                                                "
};
